<?xml version="1.0" standalone="no"?>
<!DOCTYPE svg PUBLIC "-//W3C//DTD SVG 20010904//EN"
 "http://www.w3.org/TR/2001/REC-SVG-20010904/DTD/svg10.dtd">
<svg version="1.0" xmlns="http://www.w3.org/2000/svg"
 width="512.000000pt" height="512.000000pt" viewBox="0 0 512.000000 512.000000"
 preserveAspectRatio="xMidYMid meet">

<g transform="translate(0.000000,512.000000) scale(0.100000,-0.100000)"
fill="" stroke="none">
<path d="M0 2560 l0 -2560 1798 1 c1594 1 1787 3 1705 15 -251 39 -487 160
-677 346 l-89 87 -951 3 c-944 3 -952 4 -1029 25 -298 85 -514 328 -557 629
-10 69 -1 256 69 1453 45 755 81 1377 81 1382 0 5 153 9 354 9 l354 0 5 218
c3 179 8 230 25 292 92 329 346 571 672 641 84 17 78 18 -837 18 l-923 1 0
-2560z"/>
<path d="M2095 5105 c342 -63 611 -317 696 -657 16 -65 22 -127 26 -290 l6
-208 353 0 354 0 0 -27 c0 -51 81 -1438 85 -1450 2 -7 18 -9 43 -6 57 8 239
-14 348 -42 368 -93 698 -384 833 -735 182 -470 75 -980 -279 -1330 -204 -202
-427 -309 -740 -354 -14 -2 273 -4 638 -5 l662 -1 0 2560 0 2560 -1547 -1
c-1303 -1 -1537 -3 -1478 -14z"/>
<path d="M1813 4805 c-108 -23 -189 -70 -278 -160 -140 -140 -175 -242 -175
-523 l0 -172 578 2 577 3 0 190 c-1 166 -4 199 -23 260 -90 291 -384 464 -679
400z"/>
<path d="M630 3615 c0 -19 -32 -574 -70 -1232 -55 -937 -68 -1210 -60 -1253
34 -187 190 -339 380 -369 86 -14 1670 -15 1670 -1 0 5 -11 42 -24 82 -46 136
-60 232 -60 393 0 162 13 251 60 392 114 341 394 632 728 758 60 23 60 23 58
61 -35 642 -64 1146 -68 1172 l-5 32 -209 0 -210 0 0 -185 0 -185 -150 0 -150
0 0 185 0 185 -580 0 -580 0 0 -185 0 -185 -150 0 -150 0 0 185 0 185 -215 0
-215 0 0 -35z"/>
<path d="M3570 2159 c-176 -23 -371 -116 -506 -242 -137 -128 -232 -286 -276
-462 -31 -124 -31 -333 1 -450 42 -156 131 -313 244 -427 364 -370 960 -368
1324 3 84 86 127 147 179 255 64 134 88 241 87 399 0 143 -13 214 -63 344
-107 277 -375 504 -668 566 -95 19 -232 26 -322 14z m746 -660 c-2 -10 -777
-809 -785 -809 -8 0 -474 525 -479 539 -1 4 35 41 80 81 46 41 95 84 109 98
l27 24 132 -149 c72 -81 135 -149 139 -151 4 -1 134 128 287 287 l279 290 106
-102 c58 -56 106 -105 105 -108z"/>
</g>
</svg>
